<?xml version="1.0" encoding="UTF-8"?>
<svg width="16px" height="16px" viewBox="0 0 16 16" version="1.1" xmlns="http://www.w3.org/2000/svg" xmlns:xlink="http://www.w3.org/1999/xlink">
    <!-- Generator: Sketch 50 (54983) - http://www.bohemiancoding.com/sketch -->
    <title>cshx</title>
    <desc>Created with Sketch.</desc>
    <defs></defs>
    <g id="Page-1" stroke="none" stroke-width="1" fill="none" fill-rule="evenodd">
        <g id="Artboard-2" transform="translate(-362.000000, -475.000000)" fill="#FFFFFF">
            <g id="Group-11" transform="translate(362.000000, 475.000000)">
                <g id="城市画像">
                    <path d="M14,14 L16,14 L16,15 L0,15 L0,14 L2,14 L2,3.37715071 C2,3.15391053 2.14798866,2.95771753 2.36263944,2.89638873 L8.36263944,1.18210302 C8.62815694,1.10624087 8.90489983,1.25998692 8.98076197,1.52550443 C8.99352504,1.57017516 9,1.61640673 9,1.66286499 L9,14 L10,14 L10,3.80901699 C10,3.73139445 10.0180725,3.65483791 10.0527864,3.5854102 C10.176281,3.33842095 10.4766175,3.23830877 10.7236068,3.3618034 L13.7236068,4.8618034 C13.8929988,4.94649941 14,5.11963097 14,5.30901699 L14,14 Z M6,4 L6,5 L8,5 L8,4 L6,4 Z M3,4 L3,5 L5,5 L5,4 L3,4 Z M3,6 L3,7 L5,7 L5,6 L3,6 Z M3,8 L3,9 L5,9 L5,8 L3,8 Z M3,10 L3,11 L5,11 L5,10 L3,10 Z M3,12 L3,13 L5,13 L5,12 L3,12 Z M6,6 L6,7 L8,7 L8,6 L6,6 Z M6,8 L6,9 L8,9 L8,8 L6,8 Z M6,10 L6,11 L8,11 L8,10 L6,10 Z M11,12 L11,13 L13,13 L13,12 L11,12 Z M11,10 L11,11 L13,11 L13,10 L11,10 Z M11,8 L11,9 L13,9 L13,8 L11,8 Z M11,6 L11,7 L13,7 L13,6 L11,6 Z M6,12 L6,13 L8,13 L8,12 L6,12 Z" id="Combined-Shape"></path>
                </g>
            </g>
        </g>
    </g>
</svg>