<?xml version="1.0" encoding="UTF-8"?>
<svg width="16px" height="16px" viewBox="0 0 16 16" version="1.1" xmlns="http://www.w3.org/2000/svg" xmlns:xlink="http://www.w3.org/1999/xlink">
    <!-- Generator: Sketch 52.2 (67145) - http://www.bohemiancoding.com/sketch -->
    <title>home</title>
    <desc>Created with Sketch.</desc>
    <g id="Page-1" stroke="none" stroke-width="1" fill="none" fill-rule="evenodd">
        <g id="主页" transform="translate(-60.000000, -59.000000)" fill="#FFFFFF">
            <g id="Group-16" transform="translate(60.000000, 59.000000)">
                <g id="home">
                    <g id="主页">
                        <path d="M7.64840754,0.351592458 L0.426776695,7.5732233 C0.329145622,7.67085438 0.329145622,7.82914562 0.426776695,7.9267767 C0.47366079,7.97366079 0.537249268,8 0.603553391,8 L2.5,8 L2.5,14.5 C2.5,14.7761424 2.72385763,15 3,15 L6,15 C6.27614237,15 6.5,14.7761424 6.5,14.5 L6.5,10.5 C6.5,10.2238576 6.72385763,10 7,10 L9,10 C9.27614237,10 9.5,10.2238576 9.5,10.5 L9.5,14.5 C9.5,14.7761424 9.72385763,15 10,15 L13,15 C13.2761424,15 13.5,14.7761424 13.5,14.5 L13.5,8 L15.4811541,8 C15.6192253,8 15.7311541,7.88807119 15.7311541,7.75 C15.7311541,7.68321393 15.7044317,7.61920436 15.6569449,7.57224285 L8.35354248,0.349631555 C8.1579691,0.156221624 7.84290221,0.15709779 7.64840754,0.351592458 Z" id="Path-2" fill-rule="nonzero"></path>
                    </g>
                </g>
            </g>
        </g>
    </g>
</svg>