<?xml version="1.0" encoding="UTF-8"?>
<svg width="16px" height="16px" viewBox="0 0 16 16" version="1.1" xmlns="http://www.w3.org/2000/svg" xmlns:xlink="http://www.w3.org/1999/xlink">
    <!-- Generator: Sketch 50 (54983) - http://www.bohemiancoding.com/sketch -->
    <title>cxss</title>
    <desc>Created with Sketch.</desc>
    <defs></defs>
    <g id="Page-1" stroke="none" stroke-width="1" fill="none" fill-rule="evenodd">
        <g id="Artboard-2" transform="translate(-254.000000, -475.000000)" fill="#FFFFFF">
            <g id="Group-8" transform="translate(254.000000, 475.000000)">
                <g id="潮汐实时">
                    <g id="实时监测-(1)">
                        <path d="M15.9657026,7.55292224 C15.8564212,5.59150688 15.0347817,3.75238114 13.6420389,2.35971875 C12.2493121,0.967040267 10.410138,0.145433062 8.44862608,0.0361355044 L8.44862608,0.0131297227 L7.55305908,0.0131297227 L7.55305908,0.0360872055 C5.59103194,0.144853475 3.75131054,0.966170918 2.35814908,2.3588494 C0.964955422,3.75154398 0.143026218,5.5909917 0.033696472,7.55292224 L0.0129445821,7.55292224 L0.0129445821,8.44842484 L0.0336803618,8.44842484 C0.143026218,10.4108384 0.964939312,12.2508979 2.35811688,13.644172 C3.75123003,15.0373818 5.59099976,15.8593271 7.55305908,15.9686729 L7.55305908,15.9881691 L7.97967212,15.9881691 C7.98521024,15.9887969 7.99247099,15.9893765 8.00082648,15.9893765 C8.0085863,15.9893765 8.01542847,15.9888774 8.02138517,15.9881691 L8.44851338,15.9881691 L8.44851338,15.9686246 C10.4102024,15.8587153 12.2496019,15.0365124 13.6424413,13.6432865 C15.0354579,12.2498997 15.8569846,10.4102105 15.9657509,8.44840873 L15.9887245,8.44840873 L15.9887245,7.55292224 L15.9657026,7.55292224 Z M6.18055292,4.09360395 C6.61518335,3.89028699 7.07558864,3.76278123 7.55305908,3.71351764 L7.55305908,5.65735267 C6.59552621,5.83941867 5.84164839,6.59334479 5.65763439,7.55292226 L3.71249534,7.55292226 C3.780595,6.89874684 3.99907743,6.26709423 4.35036224,5.70924042 C4.53183256,5.79981459 4.73183308,5.84714627 4.93680826,5.84714627 C5.66341403,5.84714627 6.25454491,5.25599929 6.25454491,4.52939353 C6.2545449,4.37901078 6.22970382,4.23300702 6.18055292,4.09360395 Z M3.6190394,4.52940962 C3.6190394,4.71162052 3.65727503,4.89283324 3.73028496,5.05900932 C3.21952135,5.79910622 2.91164001,6.65655028 2.83441208,7.55293834 L0.909976606,7.55293834 C1.132999,4.00814932 4.00646696,1.13530923 7.55305908,0.911240401 L7.55305908,2.83662573 C6.87053297,2.89463119 6.21878855,3.08324957 5.61226681,3.39835946 C5.40824149,3.27594105 5.17667041,3.21168909 4.93679215,3.21168909 C4.21018638,3.21168908 3.6190394,3.80280387 3.6190394,4.52940962 Z M5.6574734,8.44842484 C5.84050535,9.4081794 6.59441537,10.1630071 7.55305908,10.3461517 L7.55305908,12.2899868 C5.5327689,12.0794574 3.92183339,10.4681194 3.71244704,8.44842484 L5.6574734,8.44842484 Z M7.55305908,13.1669914 L7.55305908,15.0923445 C4.00643475,14.8682273 1.1329507,11.994373 0.909960511,8.44842484 L2.83431548,8.44842484 C3.0488053,10.9599664 5.04134044,12.9524049 7.55305908,13.1669914 Z M11.4203475,8.44842484 C11.5438929,8.78934177 11.8059398,9.06710148 12.1384368,9.21107674 C11.6466864,10.8963745 10.1919615,12.1092248 8.44862608,12.290035 L8.44862608,10.3461356 C9.40765617,10.1627978 10.1612281,9.4080023 10.343278,8.44842484 L11.4203475,8.44842484 Z M11.4208466,7.55292224 L10.3431009,7.55292224 C10.1599241,6.59342527 9.40640042,5.83957964 8.44862608,5.65736876 L8.44862608,3.71361422 C10.1916556,3.89432788 11.6463,5.10675958 12.1382597,6.79147777 C11.8063584,6.93534035 11.5445852,7.21266538 11.4208466,7.55292224 Z M8.44862608,13.1669431 C9.52699963,13.0746785 10.5300772,12.656437 11.3578021,11.9522897 C11.7765265,11.5960785 12.1343476,11.1782556 12.4213483,10.7104125 C12.696838,10.2613572 12.9008472,9.77606251 13.0284496,9.26653853 C13.4303503,9.14901428 13.7571482,8.84158372 13.8997551,8.44842484 L15.0895674,8.44842484 C14.8676236,11.9943408 11.9950733,14.8682112 8.44862608,15.0923445 L8.44862608,13.1669431 Z M12.4216864,5.29228691 C12.1347018,4.82445989 11.7768646,4.40666923 11.3581241,4.05050635 C10.530206,3.34634289 9.52708015,2.92839124 8.44861,2.83664182 L8.44860998,0.911240401 C11.9939786,1.13532534 14.8664806,4.00818152 15.0894869,7.55292224 L13.899256,7.55292224 C13.7564238,7.16040735 13.4299156,6.85349195 13.0286106,6.73604819 C12.9011048,6.22658862 12.6971439,5.74132614 12.4216864,5.29228691 Z" id="Shape" fill-rule="nonzero"></path>
                    </g>
                </g>
            </g>
        </g>
    </g>
</svg>