<?xml version="1.0" encoding="UTF-8"?>
<svg width="16px" height="16px" viewBox="0 0 16 16" version="1.1" xmlns="http://www.w3.org/2000/svg" xmlns:xlink="http://www.w3.org/1999/xlink">
    <!-- Generator: Sketch 50 (54983) - http://www.bohemiancoding.com/sketch -->
    <title>djfx</title>
    <desc>Created with Sketch.</desc>
    <defs></defs>
    <g id="Page-1" stroke="none" stroke-width="1" fill="none" fill-rule="evenodd">
        <g id="Artboard-2" transform="translate(-398.000000, -475.000000)" fill="#FFFFFF">
            <g id="Group-12" transform="translate(398.000000, 475.000000)">
                <g id="定价分析">
                    <g id="定价管理">
                        <path d="M8,0 C3.5816875,0 0,3.5816875 0,8 C0,12.4182188 3.5816875,16 8,16 C12.4183125,16 16,12.4182187 16,8 C16,3.5816875 12.4183125,0 8,0 Z M10.8791093,6.37638689 C11.1597384,6.37638689 11.387183,6.66951392 11.387183,7.031093 C11.387183,7.39265674 11.1597384,7.68570705 10.8791093,7.68570705 L8.63510333,7.68570705 L8.63510333,8.99676113 L10.8791242,8.99676113 C11.1597533,8.99676113 11.3871979,9.28981144 11.3871979,9.65146724 C11.3871979,10.013031 11.1597533,10.3061734 10.8791242,10.3061734 L8.63510333,10.3061734 L8.63510333,12.0476729 C8.63510333,12.3369638 8.35075292,12.5714286 8,12.5714286 C7.64926196,12.5714286 7.36489667,12.3369638 7.36489667,12.0476729 L7.36489667,10.3061734 L5.1208907,10.3061734 C4.84026157,10.3061734 4.61281696,10.0130463 4.61281696,9.65146724 C4.61281696,9.28981144 4.84026157,8.99676113 5.1208907,8.99676113 L7.36491155,8.99676113 L7.36491155,7.68570705 L5.1208907,7.68570705 C4.84026157,7.68570705 4.61281696,7.39265674 4.61281696,7.031093 C4.61281696,6.66952926 4.84026157,6.37638689 5.1208907,6.37638689 L6.53275903,6.37638689 L4.64617451,4.43149529 C4.49730845,4.2780344 4.57774763,3.94649995 4.82577835,3.69081364 C5.07380907,3.43512732 5.39550624,3.35220535 5.544283,3.50557417 L8,6.03707276 L10.455717,3.50555883 C10.6044938,3.35219 10.9261909,3.43511198 11.1742217,3.69079829 C11.4222524,3.9464846 11.5026916,4.27801905 11.3538255,4.43147994 L9.46724097,6.37638689 L10.8791093,6.37638689 Z" id="Shape" fill-rule="nonzero"></path>
                    </g>
                </g>
            </g>
        </g>
    </g>
</svg>