<?xml version="1.0" encoding="UTF-8"?>
<svg width="16px" height="16px" viewBox="0 0 16 16" version="1.1" xmlns="http://www.w3.org/2000/svg" xmlns:xlink="http://www.w3.org/1999/xlink">
    <!-- Generator: Sketch 52.2 (67145) - http://www.bohemiancoding.com/sketch -->
    <title>help-center</title>
    <desc>Created with Sketch.</desc>
    <g id="Page-1" stroke="none" stroke-width="1" fill="none" fill-rule="evenodd">
        <g id="Artboard" transform="translate(-246.000000, -692.000000)" fill="#FFFFFF" fill-rule="nonzero">
            <g id="Group-4-Copy-9" transform="translate(222.000000, 680.000000)">
                <g id="Group-5">
                    <g transform="translate(24.000000, 12.000000)" id="Group-7">
                        <g>
                            <g id="Group-4">
                                <g id="icon/help-center">
                                    <path d="M8,15 C4.13400675,15 1,11.8659932 1,8 C1,4.13400675 4.13400675,1 8,1 C11.8659932,1 15,4.13400675 15,8 C15,11.8659932 11.8659932,15 8,15 Z M8.28659988,4.006 C7.39859988,4.006 6.70259988,4.258 6.18659988,4.762 C5.65859988,5.266 5.40659988,5.962 5.40659988,6.85 L6.77459988,6.85 C6.77459988,6.334 6.87059988,5.938 7.07459988,5.662 C7.31459988,5.338 7.68659988,5.182 8.20259988,5.182 C8.61059988,5.182 8.93459988,5.29 9.16259988,5.518 C9.37859988,5.746 9.49859988,6.058 9.49859988,6.454 C9.49859988,6.754 9.39059988,7.042 9.17459988,7.306 L9.03059988,7.474 C8.25059988,8.17 7.78259988,8.674 7.62659988,8.998 C7.45859988,9.322 7.38659988,9.718 7.38659988,10.174 L7.38659988,10.342 L8.76659988,10.342 L8.76659988,10.174 C8.76659988,9.886 8.82659988,9.622 8.94659988,9.382 C9.05459988,9.166 9.21059988,8.962 9.42659988,8.794 C10.0025999,8.29 10.3505999,7.966 10.4585999,7.846 C10.7465999,7.462 10.9025999,6.97 10.9025999,6.37 C10.9025999,5.638 10.6625999,5.062 10.1825999,4.642 C9.70259988,4.21 9.06659988,4.006 8.28659988,4.006 Z M8.07059988,10.93 C7.80659988,10.93 7.59059988,11.014 7.42259988,11.182 C7.23059988,11.35 7.14659988,11.566 7.14659988,11.83 C7.14659988,12.094 7.23059988,12.31 7.42259988,12.478 C7.59059988,12.646 7.80659988,12.742 8.07059988,12.742 C8.33459988,12.742 8.55059988,12.658 8.74259988,12.49 C8.91059988,12.322 9.00659988,12.094 9.00659988,11.83 C9.00659988,11.566 8.91059988,11.35 8.74259988,11.182 C8.56259988,11.014 8.33459988,10.93 8.07059988,10.93 Z" id="Combined-Shape"></path>
                                </g>
                            </g>
                        </g>
                    </g>
                </g>
            </g>
        </g>
    </g>
</svg>