<?xml version="1.0" encoding="UTF-8"?>
<svg width="16px" height="16px" viewBox="0 0 16 16" version="1.1" xmlns="http://www.w3.org/2000/svg" xmlns:xlink="http://www.w3.org/1999/xlink">
    <!-- Generator: Sketch 50 (54983) - http://www.bohemiancoding.com/sketch -->
    <title>qyjc</title>
    <desc>Created with Sketch.</desc>
    <defs></defs>
    <g id="Page-1" stroke="none" stroke-width="1" fill="none" fill-rule="evenodd">
        <g id="Artboard-2" transform="translate(-218.000000, -475.000000)" fill="#FFFFFF">
            <g id="Group-4" transform="translate(218.000000, 475.000000)">
                <g id="区域决策">
                    <g id="区域" stroke-width="1" transform="translate(3.000000, 0.000000)">
                        <path d="M5,13 C1.66666667,9.50761583 0,6.84094917 0,5 C0,2.23857625 2.23857625,0 5,0 C7.76142375,0 10,2.23857625 10,5 C10,6.84094917 8.33333333,9.50761583 5,13 Z M5,7 C6.1045695,7 7,6.1045695 7,5 C7,3.8954305 6.1045695,3 5,3 C3.8954305,3 3,3.8954305 3,5 C3,6.1045695 3.8954305,7 5,7 Z" id="Combined-Shape"></path>
                    </g>
                    <path d="M5.49098814,12.1323094 C6.18309992,13.0167525 7.0194372,13.9726494 8,15 C8.9805628,13.9726494 9.81690008,13.0167525 10.5090119,12.1323094 C13.1356356,12.4205351 15,13.148061 15,14 C15,15.1045695 11.8659932,16 8,16 C4.13400675,16 1,15.1045695 1,14 C1,13.148061 2.86436438,12.4205351 5.49098814,12.1323094 Z" id="Combined-Shape"></path>
                </g>
            </g>
        </g>
    </g>
</svg>