<?xml version="1.0" encoding="UTF-8"?>
<svg width="16px" height="16px" viewBox="0 0 16 16" version="1.1" xmlns="http://www.w3.org/2000/svg" xmlns:xlink="http://www.w3.org/1999/xlink">
    <!-- Generator: Sketch 50 (54983) - http://www.bohemiancoding.com/sketch -->
    <title>ytfx</title>
    <desc>Created with Sketch.</desc>
    <defs></defs>
    <g id="Page-1" stroke="none" stroke-width="1" fill="none" fill-rule="evenodd">
        <g id="Artboard-2" transform="translate(-290.000000, -475.000000)">
            <g id="Group-9" transform="translate(290.000000, 475.000000)">
                <g id="云图分析">
                    <path d="M8,13 C8,13 8,9.66666667 8,3 M8,8 L1.5,8 L8,8 L2.5,2.5 L8,8 Z M8,8 L14.5,8 L8,8 L13.5,13.5 L8,8 Z M13.5,2.5 L2.5,13.5 L13.5,2.5 Z" id="Line-Copy" stroke-opacity="0.498641304" stroke="#FFFFFF" stroke-width="1" stroke-linecap="square"></path>
                    <path d="M8,11 C6.34314575,11 5,9.65685425 5,8 C5,6.34314575 6.34314575,5 8,5 C9.65685425,5 11,6.34314575 11,8 C11,9.65685425 9.65685425,11 8,11 Z M2.5,4 C1.67157288,4 1,3.32842712 1,2.5 C1,1.67157288 1.67157288,1 2.5,1 C3.32842712,1 4,1.67157288 4,2.5 C4,3.32842712 3.32842712,4 2.5,4 Z M13.5,4 C12.6715729,4 12,3.32842712 12,2.5 C12,1.67157288 12.6715729,1 13.5,1 C14.3284271,1 15,1.67157288 15,2.5 C15,3.32842712 14.3284271,4 13.5,4 Z M13.5,15 C12.6715729,15 12,14.3284271 12,13.5 C12,12.6715729 12.6715729,12 13.5,12 C14.3284271,12 15,12.6715729 15,13.5 C15,14.3284271 14.3284271,15 13.5,15 Z M2.5,15 C1.67157288,15 1,14.3284271 1,13.5 C1,12.6715729 1.67157288,12 2.5,12 C3.32842712,12 4,12.6715729 4,13.5 C4,14.3284271 3.32842712,15 2.5,15 Z M2.5,9.5 C1.67157288,9.5 1,8.82842712 1,8 C1,7.17157288 1.67157288,6.5 2.5,6.5 C3.32842712,6.5 4,7.17157288 4,8 C4,8.82842712 3.32842712,9.5 2.5,9.5 Z M13.5,9.5 C12.6715729,9.5 12,8.82842712 12,8 C12,7.17157288 12.6715729,6.5 13.5,6.5 C14.3284271,6.5 15,7.17157288 15,8 C15,8.82842712 14.3284271,9.5 13.5,9.5 Z M8,4 C7.17157288,4 6.5,3.32842712 6.5,2.5 C6.5,1.67157288 7.17157288,1 8,1 C8.82842712,1 9.5,1.67157288 9.5,2.5 C9.5,3.32842712 8.82842712,4 8,4 Z M8,15 C7.17157288,15 6.5,14.3284271 6.5,13.5 C6.5,12.6715729 7.17157288,12 8,12 C8.82842712,12 9.5,12.6715729 9.5,13.5 C9.5,14.3284271 8.82842712,15 8,15 Z" id="Combined-Shape" fill="#FFFFFF" fill-rule="evenodd"></path>
                </g>
            </g>
        </g>
    </g>
</svg>