<?xml version="1.0" encoding="UTF-8"?>
<svg width="16px" height="16px" viewBox="0 0 16 16" version="1.1" xmlns="http://www.w3.org/2000/svg" xmlns:xlink="http://www.w3.org/1999/xlink">
    <!-- Generator: Sketch 50 (54983) - http://www.bohemiancoding.com/sketch -->
    <title>zdybb</title>
    <desc>Created with Sketch.</desc>
    <defs></defs>
    <g id="Page-1" stroke="none" stroke-width="1" fill="none" fill-rule="evenodd">
        <g id="Artboard-2" transform="translate(-182.000000, -475.000000)" fill="#FFFFFF">
            <g id="Group-3" transform="translate(182.000000, 475.000000)">
                <g id="自定义报表">
                    <g id="报表-(4)" transform="translate(1.000000, 0.000000)">
                        <path d="M0.866666667,2 L12.1333333,2 C12.6119801,2 13,2.36376864 13,2.8125 L13,14.1875 C13,14.6362314 12.6119801,15 12.1333333,15 L0.866666667,15 C0.388019883,15 0,14.6362314 0,14.1875 L0,2.8125 C0,2.36376864 0.388019883,2 0.866666667,2 Z M2,9 L2,13 L3.5,13 L3.5,9 L2,9 Z M5.5,10 L5.5,13 L7,13 L7,10 L5.5,10 Z M9,7 L9,13 L10.5,13 L10.5,7 L9,7 Z M6.07729047,7.66992625 L10.6745993,4.9322256 L10.19493,4.12035575 L6.23343284,6.48044252 L4.15016303,4.34124512 L1.28625488,6.25765401 L1.80729277,7.04308351 L4.02223651,5.56094902 L6.07729047,7.67086659 L6.07729047,7.66992625 Z M14.0557979,15.108243 L14.0557979,1.89175705 C14.0557979,1.37038108 13.6347091,0.947722343 13.1152698,0.947722343 L0.888404133,0.947722343 L0.888404133,0.00368763557 L13.1152698,0.00368763557 C13.6141569,0.00368763557 14.092611,0.202608663 14.4453774,0.556690364 C14.7981439,0.910772064 14.9963261,1.39100991 14.9963261,1.89175705 L14.9963261,15.108243 L14.0557979,15.108243 Z" id="Shape" fill-rule="nonzero"></path>
                    </g>
                </g>
            </g>
        </g>
    </g>
</svg>